<?xml version="1.0" encoding="utf-8"?>
<!-- Generator: Adobe Illustrator 27.5.0, SVG Export Plug-In . SVG Version: 6.00 Build 0)  -->
<svg version="1.1" xmlns="http://www.w3.org/2000/svg" xmlns:xlink="http://www.w3.org/1999/xlink" x="0px" y="0px"
	 viewBox="0 0 500 500" style="enable-background:new 0 0 500 500;" xml:space="preserve">
<g id="BACKGROUND">
	<rect style="fill:#FFFFFF;" width="500" height="500"/>
</g>
<g id="OBJECTS">
	<g>
		<path style="fill:#E03F14;" d="M371.524,221.632c0,45.651-25.106,85.444-62.257,106.327c-17.62,9.907-37.961,15.552-59.623,15.552
			c-22.959,0-44.432-6.345-62.768-17.384c-35.421-21.324-59.112-60.142-59.112-104.495c0-67.313,54.567-121.88,121.879-121.88
			C316.957,99.752,371.524,154.32,371.524,221.632z"/>
		<path style="fill:#2D1A14;" d="M308.231,326.881v1.685c-17.089,9.608-36.817,15.083-57.825,15.083
			c-22.267,0-43.373-5.443-61.156-16.149c0.054-29.099,24.15-53.595,53.249-53.595h12.765
			C284.394,273.905,308.231,297.743,308.231,326.881z"/>
		<path style="fill:#2D1A14;" d="M308.163,325.47c-1.409-31.278-27.421-56.429-59.03-56.429l0,0
			c-31.609,0-57.622,25.152-59.03,56.429H308.163z"/>
		<path style="fill:#E03F14;" d="M222.9,282.666c12.589,2.002,23.704,11.448,27.71,23.55c4.221-11.913,15.153-20.222,27.12-24.289
			c-11.53-1.366-21.25-11.16-27.441-20.982C243.242,271.054,235.222,282.57,222.9,282.666z"/>
		<path style="fill:#2D1A14;" d="M275.022,286.195h-55.029c-29.024,0-52.77-23.747-52.77-52.77v-25.103
			c0-29.024,23.747-52.77,52.77-52.77h55.029c29.024,0,52.77,23.747,52.77,52.77v25.103
			C327.793,262.448,304.046,286.195,275.022,286.195z"/>
		<path style="fill:#2D1A14;" d="M306.329,176.46c13.736-1.782,26.645-9.262,35.02-20.295c8.375-11.033,12.111-25.477,10.135-39.186
			c-12.357,4.43-23.123,11.448-30.759,22.126C313.091,149.783,306.526,163.335,306.329,176.46z"/>
		<path style="fill:#2D1A14;" d="M307.78,172.627c4.372,11.896,13.661,21.898,25.201,27.136c11.54,5.238,25.185,5.646,37.017,1.106
			c-6.455-10.128-14.898-18.313-25.972-22.963C332.953,173.256,319.531,170.143,307.78,172.627z"/>
		<path style="fill:#E03F14;" d="M298.827,236.505h-97.862c-9.646,0-17.539-7.892-17.539-17.539v0
			c0-9.646,7.893-17.539,17.539-17.539h97.862c9.646,0,17.539,7.893,17.539,17.539v0
			C316.365,228.612,308.473,236.505,298.827,236.505z"/>
		<path style="fill:#FFFFFF;" d="M300.044,211.945c-13.419-0.986-27.908,6.766-34.456,16.156
			C274.107,229.769,293.552,227.481,300.044,211.945z"/>
		<path style="fill:#FFFFFF;" d="M203.059,211.945c13.419-0.986,27.908,6.766,34.456,16.156
			C228.996,229.769,209.551,227.481,203.059,211.945z"/>
		<g>
			<g>
				<path style="fill:#2D1A14;" d="M203.761,302.307l-88.586-90.92c-1.709-1.754-4.686-0.56-4.713,1.892
					c-0.058,5.376-0.087,10.756-0.083,16.128c0,1.253,0.492,2.455,1.365,3.351l90.028,92.4c0.598,0.614,1.27,1.128,1.988,1.541
					V302.307z"/>
				
					<rect x="113.688" y="228.327" transform="matrix(0.7162 -0.6979 0.6979 0.7162 -126.6345 151.0099)" style="fill:#E03F14;" width="17.372" height="5.791"/>
				
					<rect x="123.52" y="238.418" transform="matrix(0.7162 -0.6979 0.6979 0.7162 -130.8875 160.7375)" style="fill:#E03F14;" width="17.372" height="5.791"/>
			</g>
			<path style="fill:#2D1A14;" d="M161.831,248.667l-24.781,22.346c-1.782,1.607-4.554,1.463-6.16-0.318l0,0
				c-1.607-1.782-1.463-4.554,0.318-6.16l24.781-22.346c1.782-1.607,4.554-1.463,6.16,0.318l0,0
				C163.756,244.288,163.613,247.06,161.831,248.667z"/>
		</g>
		<g>
			<g>
				<path style="fill:#2D1A14;" d="M385.082,220.376l-107.717,92.803c-3.874,3.337-4.072,9.424-0.198,12.988
					c3.278,3.015,8.365,2.905,11.734,0.002l97.737-84.205c0.948-0.816,1.543-1.971,1.652-3.219
					c0.472-5.352,0.912-10.714,1.323-16.074C389.799,220.226,386.938,218.777,385.082,220.376z"/>
				
					<rect x="373.287" y="230.823" transform="matrix(0.7576 -0.6527 0.6527 0.7576 -65.145 303.5993)" style="fill:#E03F14;" width="5.791" height="17.372"/>
				
					<rect x="362.614" y="240.018" transform="matrix(0.7576 -0.6527 0.6527 0.7576 -73.7344 298.8615)" style="fill:#E03F14;" width="5.791" height="17.372"/>
			</g>
			<path style="fill:#2D1A14;" d="M335.356,253.448l22.74,24.42c1.635,1.756,4.409,1.854,6.165,0.22l0,0
				c1.756-1.635,1.854-4.409,0.22-6.165l-22.74-24.42c-1.635-1.756-4.409-1.855-6.165-0.22l0,0
				C333.82,248.919,333.721,251.693,335.356,253.448z"/>
		</g>
		<polygon style="fill:#FFFFFF;" points="150.235,213.138 153.139,218.448 158.448,221.351 153.139,224.255 150.235,229.564 
			147.331,224.255 142.022,221.351 147.331,218.448 		"/>
		<polygon style="fill:#FFFFFF;" points="158.902,188.728 160.559,191.758 163.589,193.415 160.559,195.072 158.902,198.102 
			157.245,195.072 154.215,193.415 157.245,191.758 		"/>
		<polygon style="fill:#FFFFFF;" points="252.699,118.188 256.156,124.51 262.478,127.967 256.156,131.424 252.699,137.746 
			249.242,131.424 242.92,127.967 249.242,124.51 		"/>
		<polygon style="fill:#FFFFFF;" points="232.717,135.774 234.263,138.601 237.09,140.147 234.263,141.693 232.717,144.52 
			231.171,141.693 228.344,140.147 231.171,138.601 		"/>
		<polygon style="fill:#FFFFFF;" points="193.869,125.903 195.415,128.73 198.242,130.276 195.415,131.822 193.869,134.649 
			192.322,131.822 189.495,130.276 192.322,128.73 		"/>
		<polygon style="fill:#FFFFFF;" points="296.233,123.594 297.779,126.421 300.606,127.967 297.779,129.513 296.233,132.34 
			294.686,129.513 291.859,127.967 294.686,126.421 		"/>
		<polygon style="fill:#FFFFFF;" points="341.489,226.646 343.162,229.706 346.222,231.38 343.162,233.053 341.489,236.113 
			339.815,233.053 336.755,231.38 339.815,229.706 		"/>
		<polygon style="fill:#FFFFFF;" points="355.318,210.687 357.414,214.519 361.247,216.615 357.414,218.712 355.318,222.544 
			353.222,218.712 349.39,216.615 353.222,214.519 		"/>
	</g>
	<g>
		<text transform="matrix(1 0 0 1 243.2046 376.5229)"><tspan x="0" y="0" style="fill:#2D1A14; font-family:'ArchivoBlack-Regular'; font-size:23.6588px;"> </tspan><tspan x="-60.333" y="19.486" style="fill:#2D1A14; font-family:'Montserrat-Light'; font-size:16.2386px; letter-spacing:1;">JAPAN STAFF</tspan></text>
		
			<text transform="matrix(1 0 0 1 182.7603 375.7505)" style="fill:#2D1A14; font-family:'Montserrat-Black'; font-size:29.9307px; letter-spacing:6;">NINJA</text>
	</g>
</g>
</svg>
